<svg width="30" height="30" viewBox="0 0 30 30" fill="none" xmlns="http://www.w3.org/2000/svg">
<circle cx="15" cy="15" r="15" fill="#E5E7EB"/>
<path d="M8.33333 9.87182L9.08333 9.87186V9.872V9.87221V9.87252V9.87291V9.87339V9.87395V9.8746V9.87534V9.87616V9.87706V9.87805V9.87912V9.88028V9.88152V9.88284V9.88424V9.88573V9.8873V9.88895V9.89068V9.89249V9.89438V9.89635V9.8984V9.90053V9.90274V9.90503V9.9074V9.90984V9.91236V9.91496V9.91764V9.92039V9.92322V9.92612V9.9291V9.93216V9.93529V9.93849V9.94177V9.94512V9.94855V9.95205V9.95562V9.95927V9.96298V9.96677V9.97063V9.97456V9.97856V9.98263V9.98677V9.99099V9.99527V9.99962V10.004V10.0085V10.0131V10.0177V10.0224V10.0271V10.032V10.0369V10.0418V10.0468V10.0519V10.0571V10.0623V10.0676V10.0729V10.0783V10.0838V10.0893V10.0949V10.1006V10.1063V10.1121V10.1179V10.1238V10.1298V10.1358V10.1419V10.148V10.1542V10.1605V10.1668V10.1732V10.1796V10.1861V10.1926V10.1992V10.2059V10.2126V10.2194V10.2262V10.2331V10.24V10.247V10.254V10.2611V10.2683V10.2755V10.2827V10.29V10.2974V10.3048V10.3123V10.3198V10.3273V10.335V10.3426V10.3503V10.3581V10.3659V10.3738V10.3817V10.3896V10.3976V10.4057V10.4137V10.4219V10.4301V10.4383V10.4466V10.4549V10.4633V10.4717V10.4801V10.4886V10.4972V10.5057V10.5144V10.523V10.5317V10.5405V10.5493V10.5581V10.567V10.5759V10.5848V10.5938V10.6029V10.6119V10.621V10.6302V10.6394V10.6486V10.6578V10.6671V10.6765V10.6858V10.6952V10.7047V10.7141V10.7236V10.7332V10.7427V10.7524V10.762V10.7717V10.7814V10.7911V10.8009V10.8107V10.8205V10.8304V10.8403V10.8502V10.8601V10.8701V10.8801V10.8902V10.9002V10.9103V10.9204V10.9306V10.9408V10.951V10.9612V10.9714V10.9817V10.992V11.0024V11.0127V11.0231V11.0335V11.0439V11.0544V11.0648V11.0753V11.0859V11.0964V11.1069V11.1175V11.1281V11.1388V11.1494V11.1601V11.1707V11.1814V11.1921V11.2029V11.2136V11.2244V11.2352V11.246V11.2568V11.2677V11.2785V11.2894V11.3003V11.3112V11.3221V11.333V11.344V11.3549V11.3659V11.3769V11.3879V11.3989V11.4099V11.4209V11.4319V11.443V11.4541V11.4651V11.4762V11.4873V11.4984V11.5095V11.5206V11.5317V11.5429V11.554V11.5652V11.5763V11.5875V11.5986V11.6098V11.621V11.6322V11.6433V11.6545V11.6657V11.6769V11.6881V11.6993V11.7105V11.7217V11.7329V11.7441V11.7553V11.7666V11.7778V11.789V11.8002V11.8114V11.8226V11.8338V11.845V11.8562V11.8674V11.8786V11.8898V11.901V11.9122V11.9234V11.9345V11.9457V11.9569V11.9681V11.9792V11.9904V12.0015V12.0126V12.0238V12.0349V12.046V12.0571V12.0682V12.0793V12.0904V12.1015V12.1125V12.1236V12.1346V12.1456V12.1566V12.1677V12.1786V12.1896V12.2006V12.2115V12.2225V12.2334V12.2443V12.2552V12.2661V12.277V12.2878V12.2987V12.3095V12.3203V12.3311V12.3418V12.3526V12.3633V12.374V12.3847V12.3954V12.4061V12.4167V12.4273V12.4379V12.4485V12.4591V12.4696V12.4801V12.4906V12.5011V12.5115V12.522V12.5324V12.5427V12.5531V12.5634V12.5737V12.584V12.5942V12.6045V12.6147V12.6248V12.635V12.6451V12.6552V12.6653V12.6753V12.6853V12.6953V12.7052V12.7151V12.725V12.7349V12.7447V12.7545V12.7643V12.774V12.7837V12.7934V12.803V12.8126V12.8222V12.8317V12.8412V12.8507V12.8601V12.8695V12.8789V12.8882V12.8975V12.9067V12.916V12.9251V12.9343V12.9434V12.9525V12.9615V12.9705V12.9794V12.9883V12.9972V13.006V13.0148V13.0235V13.0322V13.0409V13.0495V13.0581V13.0666V13.0751V13.0836V13.092V13.1003V13.1087V13.1169V13.1252V13.1333V13.1415V13.1496V13.1576V13.1656V13.1735V13.1814V13.1893V13.1971V13.2049V13.2126V13.2202V13.2278V13.2354V13.2429V13.2503V13.2577V13.2651V13.2724V13.2797V13.2868V13.294V13.3011V13.3081V13.3151V13.322V13.3289V13.3357V13.3425V13.3492V13.3559V13.3625V13.369V13.3755V13.3819V13.3883V13.3946V13.4008V13.407V13.4132V13.4192V13.4253V13.4312V13.4371V13.4429V13.4487V13.4544V13.4601V13.4657V13.4712V13.4767V13.4821V13.4874V13.4927V13.4979V13.503V13.5081V13.5131V13.5181V13.5229V13.5278V13.5325V13.5372V13.5418V13.5464V13.5508V13.5552V13.5596V13.5639V13.5681V13.5722V13.5763V13.5803V13.5842V13.588V13.5918V13.5955V13.5992V13.6027V13.6062V13.6096V13.613V13.6163V13.6195V13.6226V13.6256V13.6286V13.6315V13.6343V13.6371V13.6397V13.6423V13.6448V13.6473V13.6496V13.6519V13.6541V13.6562V13.6583V13.6602V13.6621V13.6639V13.6656V13.6673V13.6688V13.6703V13.6717V13.673V13.6743V13.6754V13.6765V13.6775V13.6784V13.6792V13.6799V13.6805V13.6811V13.6816V13.6819V13.6822V13.6824L8.33333 9.87182ZM8.33333 9.87182H9.08333C9.08333 9.37343 9.47067 8.72537 10.2725 8.15347C11.0492 7.59955 12.045 7.24787 12.9148 7.25001C13.7876 7.25216 14.785 7.60444 15.5616 8.15684C16.3633 8.72716 16.75 9.37257 16.75 9.87182V13.6824C16.75 15.1488 16.033 16.2434 15.5866 16.7798C15.1544 17.299 15.2022 18.1794 15.8774 18.5811L19.4724 20.7197C19.8512 20.945 20.0833 21.3532 20.0833 21.794V21.99C20.0833 22.6803 19.5237 23.24 18.8333 23.24H7C6.30964 23.24 5.75 22.6803 5.75 21.99V21.7973C5.75 21.3554 5.98331 20.9464 6.36365 20.7214L10.041 18.5464C10.6603 18.1801 10.7757 17.3741 10.3812 16.8377C10.151 16.5245 9.81946 16.0291 9.54793 15.4527C9.27317 14.8694 9.08338 14.2523 9.08333 13.6826L8.33333 9.87182Z" stroke="white" stroke-width="1.5"/>
<path fill-rule="evenodd" clip-rule="evenodd" d="M13.3336 5.89745C14.0447 4.89268 15.7926 3.95402 17.3546 4.00175C19.4646 4.06622 21.9643 5.64236 21.9643 7.35199C21.9643 7.35199 21.9643 10.9427 21.9643 10.9111C21.9643 11.605 21.5869 13.6279 20.4292 14.743C20.2958 14.8715 20.0834 15.0429 20.0834 15.0429L24.5036 17.4462L24.7545 17.6544C24.9833 17.8444 25.1157 18.1264 25.1157 18.4239L25.1157 19.9053L25.0936 20.0442C25.0283 20.4533 24.7175 20.7798 24.3122 20.8651L24.1397 20.9015H21.9643C21.9643 20.9015 21.7966 19.9675 21.3347 19.6502C21.337 19.6472 23.4521 19.6502 23.4521 19.6502H23.8856V18.5429C23.8856 18.5429 23.7771 18.4885 23.3955 18.2837C23.0139 18.0788 19.5352 16.19 19.5352 16.19C19.5352 16.19 19.2037 16.0041 19.0179 15.7247C18.8068 15.4072 18.7939 15.0608 18.8657 14.6984C18.9897 14.0723 19.6226 13.985 20.0349 13.191C20.4472 12.3969 20.7474 11.4115 20.7474 10.0532C20.7474 9.67843 20.7474 8.98198 20.7474 7.93783C20.7474 7.82042 20.7352 7.67011 20.724 7.55683C20.7131 7.44695 20.6813 7.34055 20.628 7.24382C20.5259 7.05828 20.3365 6.74189 20.1424 6.56054C19.629 6.08104 18.688 5.37913 17.6208 5.29518C17.4367 5.28071 17.2483 5.2709 17.0746 5.27982C15.906 5.33981 14.8876 6.07825 14.8876 6.07825C14.8876 6.07825 14.4244 5.97804 14.2321 5.9583C13.6331 5.89682 13.3231 5.91221 13.3336 5.89745Z" fill="white"/>
</svg>
