<svg width="48" height="48" viewBox="0 0 48 48" fill="none" xmlns="http://www.w3.org/2000/svg">
<circle cx="24" cy="24" r="24" fill="#D2D2D2"/>
<path fill-rule="evenodd" clip-rule="evenodd" d="M21.7914 15.001C22.3509 13.3937 24.6894 11.995 26.7083 12C29.0196 12.0057 31.75 13.8253 31.75 15.709V19.9007C31.75 21.8251 30.7924 23.2303 30.2445 23.8769C30.0698 24.0831 30.1077 24.4141 30.3399 24.5523L34.4391 26.9908C35.0452 27.3513 35.4166 28.0044 35.4166 28.7096V29.2389C35.4166 30.3435 34.5212 31.2389 33.4166 31.2389H30.3605C30.3974 31.3913 30.4167 31.5491 30.4167 31.7096V32.2389C30.4167 33.3435 29.5212 34.2389 28.4167 34.2389H15C13.8954 34.2389 13 33.3435 13 32.2389V31.713C13 31.006 13.3733 30.3515 13.9818 29.9916L18.1663 27.5166C18.3807 27.3898 18.431 27.0979 18.2825 26.8979C17.7463 26.1755 16.6668 24.5202 16.6667 22.9009V18.709C16.6667 16.8284 19.397 14.9943 21.7083 15C21.736 15.0001 21.7636 15.0004 21.7914 15.001ZM28.1753 29.2389H33.4166V28.7096L29.3174 26.2711C27.9038 25.4302 27.8359 23.6256 28.7187 22.5839C29.1181 22.1125 29.75 21.1544 29.75 19.9007V15.709C29.75 15.709 29.7497 15.7088 29.7492 15.7065C29.7406 15.6711 29.6463 15.2849 28.9366 14.78C28.2494 14.2912 27.3847 14.0017 26.7034 14C26.0299 13.9983 25.1695 14.2851 24.482 14.7754C24.1109 15.0401 23.9076 15.2727 23.7968 15.4395C25.4011 16.0926 26.75 17.385 26.75 18.709V22.9007C26.75 24.8251 25.7925 26.2303 25.2445 26.8769C25.0698 27.0831 25.1077 27.4141 25.34 27.5523L28.1753 29.2389ZM18.6667 22.9009C18.6667 23.294 18.8067 23.8042 19.0788 24.3748C19.3416 24.926 19.6665 25.4068 19.8884 25.7057C20.7012 26.8006 20.482 28.4706 19.1844 29.2381L15 31.713V32.2389H28.4167L28.4167 31.7096L24.3175 29.2711C22.9039 28.4302 22.8359 26.6256 23.7187 25.5839C24.1182 25.1125 24.75 24.1544 24.75 22.9007V18.709C24.75 18.709 24.7498 18.7088 24.7493 18.7065C24.7406 18.6711 24.6464 18.2849 23.9366 17.78C23.2494 17.2912 22.3848 17.0017 21.7034 17C21.03 16.9983 20.1695 17.2852 19.4821 17.7754C18.7726 18.2815 18.6764 18.6702 18.6675 18.7064C18.6669 18.7087 18.6667 18.709 18.6667 18.709V22.9009Z" fill="white"/>
</svg>
