
<svg  width="17" height="17" viewBox="0 0 21 19" version="1.1" xmlns="http://www.w3.org/2000/svg" xmlns:xlink="http://www.w3.org/1999/xlink">
    <g id="" stroke="none" stroke-width="1" fill="none" fill-rule="evenodd" stroke-linecap="round" stroke-linejoin="round">
        <g id="InputBox/Short" transform="translate(-317.000000, -21.000000)" fill-rule="nonzero" stroke="#3A3C3E" stroke-width="2">
            <g id="Icon/File" transform="translate(315.000000, 17.000000)">
                <path d="M10.2935398,6.31465798 L10.2935398,16.3174656 C10.2935398,17.4204845 11.1877133,18.314658 12.2907322,18.314658 C13.3937511,18.314658 14.2879246,17.4204845 14.2879246,16.3174656 L14.2879246,6.30196267 C14.2879246,4.0998351 12.5027475,2.31465798 10.3006199,2.31465798 C8.09849233,2.31465798 6.31331521,4.0998351 6.31331521,6.30196267 L6.31331521,16.3133152 C6.31331521,19.6277653 9.00020789,22.314658 12.314658,22.314658 C15.6291081,22.314658 18.3160008,19.6277653 18.3160008,16.3133152 L18.3160008,10.314658 L18.3160008,10.314658" id="路径-2" transform="translate(12.314658, 12.314658) scale(1, -1) rotate(-225.000000) translate(-12.314658, -12.314658) "></path>
            </g>
        </g>
    </g>
</svg>