<svg viewBox="0 0 26 26" xmlns="http://www.w3.org/2000/svg"><g fill="#3A3C3E" fill-rule="nonzero"><path d="M16.783 5.347a5.011 5.011 0 012.796 2.776C22.027 8.488 24 10.564 24 13.051v2c0 2.49-2.01 4.577-4.473 4.933A4.984 4.984 0 0115 22.997L11.044 23a4.982 4.982 0 01-4.572-3.014C4.01 19.629 2 17.542 2 15.05v-2c0-2.485 1.973-4.561 4.42-4.926a5.003 5.003 0 012.8-2.777l-.775-.516a1 1 0 011.11-1.664l2.75 1.834 1.39-.001 2.75-1.833a1 1 0 011.11 1.664l-.772.515zm-5.739 1.656c-1.39 0-2.585.959-2.906 2.299l-.184.762-.784.004C5.465 10.077 4 11.452 4 13.052v2c0 1.593 1.49 2.98 3.203 2.988l.762.003.199.736A2.99 2.99 0 0011.044 21h3.91a2.996 2.996 0 002.882-2.224l.198-.735.762-.003C20.51 18.03 22 16.643 22 15.05v-2c0-1.6-1.465-2.975-3.17-2.984l-.784-.004-.183-.762a3.01 3.01 0 00-1.98-2.152A2.954 2.954 0 0014.967 7l-3.923.003z"/><rect x="9" y="11" width="2" height="5" rx="1"/><rect x="15" y="11" width="2" height="5" rx="1"/></g></svg>