<?xml version="1.0" encoding="UTF-8"?>
<svg viewBox="0 0 26 26" version="1.1" xmlns="http://www.w3.org/2000/svg" xmlns:xlink="http://www.w3.org/1999/xlink">
    <g  stroke="none" stroke-width="1" fill="none" fill-rule="evenodd">
        <g transform="translate(2.000000, 3.000000)" fill="#3A3C3E" fill-rule="nonzero">
            <path d="M14.7825977,2.34678532 C16.0564419,2.84963375 17.0672986,3.85975556 17.5794137,5.12310189 C20.0265657,5.4876398 22,7.56429131 22,10.050678 L22,12.0503031 C22,14.5408749 19.9906519,16.6276772 17.5267233,16.9839542 C16.7553632,18.7671115 15.0026913,19.97852 13.0006049,19.996791 L9.04433518,20 C7.02220672,20 5.2491249,18.783657 4.47208939,16.9858949 C2.00883819,16.6294114 0,14.5423142 0,12.0513029 L0,10.0516778 C0,7.56620598 1.97330048,5.48991272 4.42007377,5.12517915 C4.93733566,3.8460057 5.95777613,2.84568012 7.21977445,2.34836672 L6.4452998,1.83205029 C5.98577112,1.52569784 5.86159725,0.904828492 6.16794971,0.445299804 C6.47430216,-0.0142288849 7.09517151,-0.138402753 7.5547002,0.167949706 L10.3058394,2.00204248 L11.6957417,2.00098843 L14.4452998,0.167949706 C14.9048285,-0.138402753 15.5256978,-0.0142288849 15.8320503,0.445299804 C16.1384028,0.904828492 16.0142289,1.52569784 15.5547002,1.83205029 L14.7825977,2.34678532 Z M9.04433518,4.00299944 C7.65405904,4.00299944 6.45949827,4.96171612 6.13750849,6.30201567 L5.95433284,7.06449405 L5.17017007,7.06841219 C3.46519858,7.07693122 2,8.45216714 2,10.0516778 L2,12.0513029 C2,13.6449721 3.49085751,15.0317895 5.20271723,15.0395654 L5.96467665,15.0430265 L6.16352326,15.7785903 C6.51590151,17.0820911 7.68748255,18 9.04433518,18 L12.9545667,18 C14.3107884,17.9970006 15.4832415,17.0787966 15.8355154,15.7764477 L16.0344408,15.0410248 L16.7962848,15.0375658 C18.5088902,15.02979 20,13.6432024 20,12.0503031 L20,10.050678 C20,8.45028612 18.5349304,7.07493224 16.8298299,7.06641256 L16.0458218,7.0624952 L15.8625363,6.30020222 C15.6192636,5.28841976 14.8652318,4.46980834 13.8834695,4.14763457 C13.5916676,4.05138439 13.2843232,4.00129749 12.9670718,4.00002488 L9.04433518,4.00299944 Z" id="Combined-Shape"></path>
        </g>
        <rect fill="#3A3C3E" fill-rule="nonzero" x="9" y="11" width="2" height="5" rx="1"></rect>
        <rect fill="#3A3C3E" fill-rule="nonzero" x="15" y="11" width="2" height="5" rx="1"></rect>
    </g>
</svg>