<svg class="icon" viewBox="0 0 1024 1024" xmlns="http://www.w3.org/2000/svg" width="500" height="500"><defs><style/></defs><path d="M631.5 215.8L213.9 633.4c-12.1 12.1-12.1 31.8 0 44l131.9 131.9c12.1 12.1 31.8 12.1 44 0l417.6-417.6c12.1-12.1 12.1-31.8 0-44L675.5 215.8c-12.2-12.1-31.8-12.1-44 0zm153.9-109.9l131.9 131.9c12.1 12.1 12.1 31.8 0 44l-44 44c-12.1 12.1-31.8 12.1-44 0l-131.8-132c-12.1-12.1-12.1-31.8 0-44l44-44c12-12 31.7-12 43.9.1zM194.6 688.1L335 828.6c8.1 8.1 4.9 22-6 25.7L116.9 926c-12.2 4.1-23.8-7.5-19.7-19.7l71.7-212.1c3.6-11 17.5-14.2 25.7-6.1z"/></svg>