<svg width="20" height="20" viewBox="0 0 22 22" xmlns="http://www.w3.org/2000/svg"><g transform="translate(-2 -2)" stroke="#3A3C3E" fill="none" fill-rule="evenodd"><circle stroke-width="2" stroke-linecap="round" stroke-linejoin="round" cx="13" cy="13" r="10"/><path d="M8.64 9.377c.606 0 1.13.118 1.573.352.641.337 1.034.927 1.177 1.771h-.865c-.106-.472-.324-.815-.655-1.03-.331-.216-.749-.324-1.253-.324-.597 0-1.1.225-1.51.673-.408.448-.612 1.116-.612 2.004 0 .767.168 1.392.505 1.874.337.482.886.723 1.648.723.583 0 1.066-.17 1.448-.508.382-.338.578-.885.587-1.641H8.66v-.725h2.835V16h-.563l-.21-.83c-.297.325-.559.55-.787.676-.384.217-.872.325-1.464.325-.764 0-1.422-.247-1.973-.742-.6-.621-.9-1.474-.9-2.558 0-1.081.292-1.94.878-2.58.557-.609 1.278-.914 2.162-.914zm4.632.167h.883V16h-.883V9.544zm2.611 0h4.478v.791h-3.603v1.96h3.168v.77h-3.168V16h-.875V9.544z" stroke-width=".7" fill="#3A3C3E" fill-rule="nonzero"/></g></svg>