<svg width="14" height="12" xmlns="http://www.w3.org/2000/svg"><g fill="none" fill-rule="evenodd"><path d="M2 .5A1.5 1.5 0 00.5 2v8A1.5 1.5 0 002 11.5h10a1.5 1.5 0 001.5-1.5V2A1.5 1.5 0 0012 .5H2z" stroke="#B8BDC7"/><path d="M3.5 4.617c-.276 0-.5.192-.5.447s.224.461.5.461h6.93a.5.5 0 00.34-.865L8.893 2.906a.53.53 0 00-.707-.003.437.437 0 00-.004.652l1.21 1.062h-5.89zm7.01 2.768c.277 0 .5-.207.5-.462s-.223-.461-.5-.461H3.57a.5.5 0 00-.34.865l1.879 1.754a.53.53 0 00.707.003.437.437 0 00.004-.653L4.698 7.385h5.813z" fill="#B8BDC7" fill-rule="nonzero"/></g></svg>