<?xml version="1.0" encoding="UTF-8"?>
<svg width="14px" height="12px" viewBox="0 0 14 12" version="1.1" xmlns="http://www.w3.org/2000/svg" xmlns:xlink="http://www.w3.org/1999/xlink">
    <!-- Generator: Sketch 52.2 (67145) - http://www.bohemiancoding.com/sketch -->
    <g stroke="none" stroke-width="1" fill="none" fill-rule="evenodd">
        <g transform="translate(1.000000, 0.000000)" fill-rule="nonzero" stroke="#B8BDC7">
            <g>
                <path d="M11.1199477,9.83030295 L8.35728323,8.59206866 C7.98904998,8.40869344 7.83981202,7.96113529 8.02722188,7.59500726 C8.06242611,7.52595678 8.10829448,7.4629035 8.16312589,7.40806122 C8.69551198,6.87575392 8.92857143,6.03972006 8.92857143,4.92791594 L8.92857143,2.41233257 C8.92857143,1.5617033 7.4510923,0.503058183 6.07633584,0.500006323 C6.04379655,0.500068797 6.04379655,0.500068797 5.98888114,0.500663805 C5.95620345,0.500068797 5.95620345,0.500068797 5.92367876,0.500006291 C4.5489077,0.503058183 3.07142857,1.5617033 3.07142857,2.41233257 L3.07142857,4.92791594 C3.07142857,6.03972006 3.30448802,6.87575392 3.83693534,7.40812246 C3.89170552,7.4629035 3.93757389,7.52595678 3.9724111,7.59428881 C4.16018798,7.96113529 4.01095002,8.40869344 3.62426893,8.60079028 L0.888654768,9.82590692 C0.649461226,9.94614034 0.5,10.1868024 0.5,10.4485041 L0.5,10.856527 C0.5,11.21041 0.79344082,11.5 1.15866009,11.5 L10.8413399,11.5 C11.2065592,11.5 11.5,11.21041 11.5,10.856527 L11.5,10.4485041 C11.5,10.189954 11.3541169,9.95193983 11.1199477,9.83030295 Z M8.87472572,8.11066652 C8.87323279,8.11216529 8.87173808,8.11366282 8.87024158,8.11515909 C8.87372352,8.11167646 8.8771055,8.108095 8.88038152,8.10442345 Z"></path>
            </g>
        </g>
    </g>
</svg>