<?xml version="1.0" encoding="UTF-8"?>
<svg width="14px" height="12px" viewBox="0 0 14 12" version="1.1" xmlns="http://www.w3.org/2000/svg" xmlns:xlink="http://www.w3.org/1999/xlink">
    <!-- Generator: Sketch 52.2 (67145) - http://www.bohemiancoding.com/sketch -->
    <g stroke="none" stroke-width="1" fill="none" fill-rule="evenodd">
        <path d="M3,1.5 C2.17157288,1.5 1.5,2.17157288 1.5,3 L1.5,4 C1.5,4.82842712 2.17157288,5.5 3,5.5 L4,5.5 C4.82842712,5.5 5.5,4.82842712 5.5,4 L5.5,3 C5.5,2.17157288 4.82842712,1.5 4,1.5 L3,1.5 Z" id="Rectangle-7" stroke="#B8BDC7"></path>
        <path d="M3,7.5 C2.17157288,7.5 1.5,8.17157288 1.5,9 L1.5,10 C1.5,10.8284271 2.17157288,11.5 3,11.5 L4,11.5 C4.82842712,11.5 5.5,10.8284271 5.5,10 L5.5,9 C5.5,8.17157288 4.82842712,7.5 4,7.5 L3,7.5 Z" id="Rectangle-7" stroke="#B8BDC7"></path>
        <path d="M9,7.5 C8.17157288,7.5 7.5,8.17157288 7.5,9 L7.5,10 C7.5,10.8284271 8.17157288,11.5 9,11.5 L10,11.5 C10.8284271,11.5 11.5,10.8284271 11.5,10 L11.5,9 C11.5,8.17157288 10.8284271,7.5 10,7.5 L9,7.5 Z" id="Rectangle-7-Copy" stroke="#B8BDC7"></path>
        <path d="M9.03553391,1.53553391 C8.20710678,1.53553391 7.53553391,2.20710678 7.53553391,3.03553391 L7.53553391,4.03553391 C7.53553391,4.86396103 8.20710678,5.53553391 9.03553391,5.53553391 L10.0355339,5.53553391 C10.863961,5.53553391 11.5355339,4.86396103 11.5355339,4.03553391 L11.5355339,3.03553391 C11.5355339,2.20710678 10.863961,1.53553391 10.0355339,1.53553391 L9.03553391,1.53553391 Z" id="Rectangle-7" stroke="#B8BDC7" transform="translate(9.535534, 3.535534) rotate(45.000000) translate(-9.535534, -3.535534) "></path>
    </g>
</svg>