<svg width="260" height="280" fill="none" xmlns="http://www.w3.org/2000/svg"><mask id="a" maskUnits="userSpaceOnUse" x="0" y="0" width="260" height="280"><path fill="#C4C4C4" d="M0 0h260v280H0z"/></mask><g mask="url(#a)"><path d="M-20.5-26H871v735H-20.5V-26z" fill="#3A3E43"/><path fill-rule="evenodd" clip-rule="evenodd" d="M17.987-27v735h1V-27h-1zm15.988 735V-27h1v735h-1zm15.987 0V-27h1v735h-1zm-47.975.5v-735h1v735h-1zM65.95-27v735h1V-27h-1zm15.987 735V-27h1v735h-1zM97.924-27v735h1V-27h-1zm15.988 735V-27h1v735h-1zm15.987-735v735h1V-27h-1zm15.987 735V-27h1v735h-1zm15.988-735v735h1V-27h-1zm15.987 735V-27h1v735h-1zm15.988-735v735h1V-27h-1zm15.987 735V-27h1v735h-1zm15.987-735v735h1V-27h-1zm15.988 735V-27h1v735h-1zm15.987-735v735h1V-27h-1zm15.987 735V-27h1v735h-1zm15.987-735v735h1V-27h-1zm15.988 735V-27h1v735h-1zm15.987-735v735h1V-27h-1zm15.987 735V-27h1v735h-1zm15.988-735v735h1V-27h-1zm15.987 735V-27h1v735h-1zm15.987-735v735h1V-27h-1zm15.988 735V-27h1v735h-1zm15.987-735v735h1V-27h-1zm15.987 735V-27h1v735h-1zm15.988-735v735h1V-27h-1zm15.987 735V-27h1v735h-1zM481.62-27v735h1V-27h-1zm15.988 735V-27h1v735h-1zm15.988-735v735h1V-27h-1zm15.987 735V-27h1v735h-1zM545.57-27v735h1V-27h-1zm15.988 735V-27h1v735h-1zm15.987-735v735h1V-27h-1zm15.987 735V-27h1v735h-1zM609.52-27v735h1V-27h-1zm15.987 735V-27h1v735h-1zm15.988-735l-.001 735h1l.001-735h-1zm15.987 735V-27h1v735h-1zm15.987-735v735h1V-27h-1zm15.987 735V-27h1v735h-1zm15.988-735v735h1V-27h-1zm15.987 735V-27h1v735h-1zm15.988-735l-.001 735h1l.001-735h-1zm15.987 735V-27h1v735h-1zm15.987-735v735h1V-27h-1zm15.987 735V-27h1v735h-1zm15.987-735v735h1V-27h-1zm15.986 735V-27h1v735h-1zM833.34-27v735h1V-27h-1z" fill="#000" fill-opacity=".06"/><path fill-rule="evenodd" clip-rule="evenodd" d="M-15.5 708H842v-1H-15.5v1zm0-15.998H842v-1H-15.5v1zM842 676.005H-15.5v-1H842v1zm-857.5-15.998H842v-1H-15.5v1zM842 644.01H-15.5v-1H842v1zm-857.5-15.998H842v-1H-15.5v1zM842 612.015l-857.5-.001v-1l857.5.001v1zm-857.5-15.998H842v-1H-15.5v1zM842 580.019H-15.5v-1H842v1zm-857.5-15.997H842v-1H-15.5v1zM842 548.024H-15.5v-1H842v1zm-857.5-15.997H842v-1H-15.5v1zM842 516.029H-15.5v-1H842v1zm-857.5-15.998H842v-1H-15.5v1zM842 484.034H-15.5v-1H842v1zm-857.5-15.998H842v-1H-15.5v1zM842 452.039H-15.5v-1H842v1zm-857.5-15.998H842v-1H-15.5v1zM842 420.044H-15.5v-1H842v1zm-857.5-15.998H842v-1H-15.5v1zM842 388.048H-15.5v-1H842v1zm-857.5-15.997H842v-1H-15.5v1zM842 356.053H-15.5v-1H842v1zm-857.5-15.997H842v-1H-15.5v1zM842 324.058H-15.5v-1H842v1zM-15.5 308.06H842v-1H-15.5v1zM842 292.063H-15.5v-1H842v1zm-857.5-15.998H842v-1H-15.5v1zM842 260.068H-15.5v-1H842v1zM-15.5 244.07H842v-1H-15.5v1zM842 228.073H-15.5v-1H842v1zm-857.5-15.998H842v-1H-15.5v1zM842 196.077H-15.5v-1H842v1zM-15.5 180.08H842v-1H-15.5v1zM842 164.082H-15.5v-1H842v1zm-857.5-15.997H842v-1H-15.5v1zM842 132.087H-15.5v-1H842v1zm-857.5-15.998l857.5.001v-1l-857.5-.001v1zM842 100.092H-15.5v-1H842v1zM-15.5 84.094H842v-1H-15.5v1zM842 68.097H-15.5v-1H842v1zM-15.5 52.099H842v-1H-15.5v1zM842 36.102H-15.5v-1H842v1zM-15.5 20.104H842v-1H-15.5v1zM842 4.106H-15.5v-1H842v1zM-15.5-11.89H842v-1H-15.5v1z" fill="#000" fill-opacity=".06"/></g></svg>