<svg width="14" height="12" xmlns="http://www.w3.org/2000/svg"><path d="M6.504.857C5.376.857 4.462 1.934 4.462 3l-.007 3.429c0 1.065.92 2.14 2.049 2.14 1.127 0 2.034-1.075 2.034-2.14L8.545 3c0-1.066-.914-2.143-2.041-2.143zm0-.857c1.58 0 2.86 1.437 2.86 3l-.007 3.429c0 1.563-1.274 3-2.853 3-1.58 0-2.868-1.437-2.868-3L3.643 3c0-1.563 1.281-3 2.86-3zm.403 11.573A.417.417 0 016.5 12a.417.417 0 01-.407-.427v-.428C3.887 10.926 2 8.831 2 6.605V5.57a.42.42 0 01.41-.43.42.42 0 01.408.43v1.036c0 1.894 1.716 3.671 3.682 3.683 1.966.011 3.682-1.789 3.682-3.683V5.57a.42.42 0 01.409-.43.42.42 0 01.409.43v1.036c0 2.222-1.944 4.357-4.093 4.54v.428z" fill="#B8BDC7"/></svg>