<?xml version="1.0" encoding="utf-8"?>
<svg version="1.1" id="layer_1" xmlns="http://www.w3.org/2000/svg" xmlns:xlink="http://www.w3.org/1999/xlink" x="0px" y="0px"
	 viewBox="212 -62 1024 1024" style="enable-background:new 212 -62 1024 1024;" xml:space="preserve" width="14" height="14">
<style type="text/css">
	.st0{fill:#A9A9A9;}
</style>
<path class="st0" d="M981.2,768.7L508.1,297.1H410c-24.5,0-43.9,20.9-43.9,45.4v243.1c0,24.5,19.3,45.4,43.9,45.4h177.7
	c150.3,146.5,263,254,338.2,322.3c13.6,12.3,34.6,11.4,47-2.2c5.6-6.2,8.5-13,8.5-21.4v-4.4V768.7H981.2z M1317.9,839.7l-37.2-38.2
	l-299.8-300V15V-5.5c-0.4-16.8-15.8-29.4-32.5-29c-7.3,0.1-14.4,3.1-19.8,8.1c-2.9,2.6-9.7,8.9-9.7,8.9l-234.1,223L444.1-35.2
	L432-46.8c-22.1-20.9-57-20.4-78.4,1.3c-21.2,21.4-21.1,55.9,0.3,77.2c0,0,0,0,0.1,0.1l11.6,11.4l835.5,835.5
	c0.7,0.7,1.5,1.5,2.1,2.2l36.6,38.7c20.2,21.4,54,22.3,75.4,2.1c0.3-0.3,0.7-0.7,1-1l1-1C1339.6,897.7,1339.7,862.1,1317.9,839.7z"
	/>
</svg>
