<?xml version="1.0" encoding="UTF-8"?>
<svg width="14px" height="12px" viewBox="0 0 14 12" version="1.1" xmlns="http://www.w3.org/2000/svg" xmlns:xlink="http://www.w3.org/1999/xlink">
    <!-- Generator: Sketch 52.2 (67145) - http://www.bohemiancoding.com/sketch -->
    <g stroke="none" stroke-width="1" fill="none" fill-rule="evenodd">
        <g transform="translate(0.000000, 1.000000)" stroke="#B8BDC7">
            <path d="M2,0.5 C1.17157288,0.5 0.5,1.17157288 0.5,2 L0.5,8 C0.5,8.82842712 1.17157288,9.5 2,9.5 L9,9.5 C9.82842712,9.5 10.5,8.82842712 10.5,8 L10.5,2 C10.5,1.17157288 9.82842712,0.5 9,0.5 L2,0.5 Z"></path>
            <path d="M10.5,3.6287918 L10.5,6.37143669 L12.8040165,7.35308772 C12.8659825,7.37948902 12.9326441,7.3930981 13,7.3930981 C13.2761424,7.3930981 13.5,7.16924047 13.5,6.8930981 L13.5,3.1071304 C13.5,3.03977447 13.4863909,2.97311292 13.4599896,2.91114686 C13.3517509,2.65710161 13.0580617,2.53890206 12.8040165,2.64714077 L10.5,3.6287918 Z" id="Rectangle-3"></path>
        </g>
    </g>
</svg>