<?xml version="1.0" encoding="UTF-8"?>
<svg width="14px" height="12px" viewBox="0 0 14 12" version="1.1" xmlns="http://www.w3.org/2000/svg" xmlns:xlink="http://www.w3.org/1999/xlink">
    <!-- Generator: Sketch 52.2 (67145) - http://www.bohemiancoding.com/sketch -->
    <g stroke="none" stroke-width="1" fill="none" fill-rule="evenodd">
        <g transform="translate(2.000000, 0.000000)" fill="#B8BDC7" fill-rule="nonzero">
            <path d="M4.50354695,0.857478719 C3.37583252,0.857478719 2.46163936,1.93432495 2.46163936,3 L2.45454545,6.42857143 C2.45454545,7.49424648 3.37583252,8.56991719 4.50354695,8.56991719 C5.63126138,8.56991719 6.53836064,7.49424648 6.53836064,6.42857143 L6.54545455,3 C6.54545455,1.93432495 5.63126138,0.857478719 4.50354695,0.857478719 Z M4.50354695,0 C6.08313072,-2.87131341e-16 7.36363636,1.43692978 7.36363636,3 L7.35654246,6.42857143 C7.35654246,7.99164165 6.08313072,9.42857143 4.50354695,9.42857143 C2.92396318,9.42857143 1.63636364,7.99164165 1.63636364,6.42857143 L1.64345754,3 C1.64345754,1.43692978 2.92396318,2.87131341e-16 4.50354695,0 Z M4.90702117,11.5734298 C4.90702117,11.809018 4.72479159,12 4.5,12 C4.27520841,12 4.09297883,11.809018 4.09297883,11.5734298 L4.09297883,11.145405 C1.88722635,10.9262545 2.60076597e-16,8.83085013 0,6.60507026 L0,5.56857374 C-3.14039976e-17,5.33178753 0.183156239,5.13983438 0.409090909,5.13983438 C0.635025579,5.13983438 0.818181818,5.33178753 0.818181818,5.56857374 L0.818181818,6.60507026 C0.818181818,8.49935994 2.53377616,10.2761558 4.5,10.2877141 C6.46622384,10.2992724 8.18181818,8.49935994 8.18181818,6.60507026 L8.18181818,5.56857374 C8.18181818,5.33178753 8.36497442,5.13983438 8.59090909,5.13983438 C8.81684376,5.13983438 9,5.33178753 9,5.56857374 L9,6.60507026 C9,8.82709913 7.05594637,10.9615177 4.90702117,11.145405 L4.90702117,11.5734298 Z" id="Combined-Shape"></path>
        </g>
    </g>
</svg>