<svg width="44" height="51" fill="none" xmlns="http://www.w3.org/2000/svg"><g filter="url(#filter0_f)"><path fill-rule="evenodd" clip-rule="evenodd" d="M23.182 38l-2.298-1.264 7.052-5.236c-1.153-.969-2.933-3.496-1.72-4.732 1.819-1.851 6.156-2.148 8.997-1.356 2.841.791 3.727 3.633 2.075 5.246-1.479 1.446-5.077 1.446-6.191 1.306L23.182 38z" fill="#000" fill-opacity=".2"/></g><g filter="url(#filter1_d)"><path fill-rule="evenodd" clip-rule="evenodd" d="M22.884 30.455c5.607-.505 10-5.217 10-10.955 0-6.075-4.925-11-11-11s-11 4.925-11 11c0 5.738 4.393 10.45 10 10.955v6.679c-.598.173-1 .496-1 .866 0 .552.895 1 2 1s2-.448 2-1c0-.37-.402-.693-1-.866v-6.679z" fill="#277EFF"/></g><path fill-rule="evenodd" clip-rule="evenodd" d="M21.884 23.5a4 4 0 100-8 4 4 0 000 8z" fill="#fff"/><defs><filter id="filter0_f" x="15.447" y="19.563" width="28.105" height="23.873" filterUnits="userSpaceOnUse" color-interpolation-filters="sRGB"><feFlood flood-opacity="0" result="BackgroundImageFix"/><feBlend in="SourceGraphic" in2="BackgroundImageFix" result="shape"/><feGaussianBlur stdDeviation="2.718" result="effect1_foregroundBlur"/></filter><filter id="filter1_d" x=".884" y=".5" width="42" height="50.5" filterUnits="userSpaceOnUse" color-interpolation-filters="sRGB"><feFlood flood-opacity="0" result="BackgroundImageFix"/><feColorMatrix in="SourceAlpha" values="0 0 0 0 0 0 0 0 0 0 0 0 0 0 0 0 0 0 127 0"/><feOffset dy="2"/><feGaussianBlur stdDeviation="5"/><feColorMatrix values="0 0 0 0 0 0 0 0 0 0 0 0 0 0 0 0 0 0 0.18 0"/><feBlend in2="BackgroundImageFix" result="effect1_dropShadow"/><feBlend in="SourceGraphic" in2="effect1_dropShadow" result="shape"/></filter></defs></svg>