<svg width="14" height="12" xmlns="http://www.w3.org/2000/svg"><path d="M3 1.5A1.5 1.5 0 001.5 3v1A1.5 1.5 0 003 5.5h1A1.5 1.5 0 005.5 4V3A1.5 1.5 0 004 1.5H3zm0 6A1.5 1.5 0 001.5 9v1A1.5 1.5 0 003 11.5h1A1.5 1.5 0 005.5 10V9A1.5 1.5 0 004 7.5H3zm6 0A1.5 1.5 0 007.5 9v1A1.5 1.5 0 009 11.5h1a1.5 1.5 0 001.5-1.5V9A1.5 1.5 0 0010 7.5H9zm1.596-5.732a1.5 1.5 0 00-2.121 0l-.707.707a1.5 1.5 0 000 2.121l.707.707a1.5 1.5 0 002.121 0l.707-.707a1.5 1.5 0 000-2.121l-.707-.707z" fill="none" stroke="#B8BDC7"/></svg>