<svg width="10" height="13" fill="none" xmlns="http://www.w3.org/2000/svg"><path fill-rule="evenodd" clip-rule="evenodd" d="M5.002 0C2.26 0 0 2.267 0 5.056v.085c0 1.977 1.011 3.923 2.07 5.344a11.906 11.906 0 001.582 1.751c.242.214.473.393.678.521.102.064.207.12.309.163.096.04.224.08.363.08a.97.97 0 00.368-.082c.103-.043.208-.1.311-.166a5.22 5.22 0 00.679-.53 12.096 12.096 0 001.578-1.774C8.993 9.013 10 7.058 10 5.1v-.085A5.006 5.006 0 005.002 0zM1 5.056C1 2.812 2.82 1 5.002 1A4.006 4.006 0 019 5.016V5.1c0 1.645-.863 3.39-1.867 4.754a11.098 11.098 0 01-1.443 1.624 4.29 4.29 0 01-.545.429 1.236 1.236 0 01-.143.08 1.233 1.233 0 01-.142-.079 4.293 4.293 0 01-.544-.421c-.43-.38-.946-.934-1.444-1.601C1.867 8.538 1 6.804 1 5.14v-.085zM4 5a1 1 0 112 0 1 1 0 01-2 0zm1-2a2 2 0 100 4 2 2 0 000-4z" fill="#B8BDC7"/></svg>