<?xml version="1.0" encoding="UTF-8"?>
<svg width="14px" height="12px" viewBox="0 0 14 12" version="1.1" xmlns="http://www.w3.org/2000/svg" xmlns:xlink="http://www.w3.org/1999/xlink">
    <!-- Generator: Sketch 52.2 (67145) - http://www.bohemiancoding.com/sketch -->
    <g stroke="none" stroke-width="1" fill="none" fill-rule="evenodd">
        <g transform="translate(2.000000, 0.000000)" stroke="#B8BDC7">
            <path d="M2.42857143,6.5 L7.57142857,6.5" stroke-linecap="round"></path>
            <path d="M2.42857143,8.5 L7.57142857,8.5" stroke-linecap="round"></path>
            <path d="M4.43976815,0.5 L0.5,4.49093397 L0.5,10 C0.5,10.8284271 1.17157288,11.5 2,11.5 L8,11.5 C8.82842712,11.5 9.5,10.8284271 9.5,10 L9.5,2 C9.5,1.17157288 8.82842712,0.5 8,0.5 L4.43976815,0.5 Z" transform="translate(5.000000, 6.000000) scale(-1, 1) translate(-5.000000, -6.000000) "></path>
            <path d="M5.75256133,4.5 L8,4.5 C8.82842712,4.5 9.5,3.82842712 9.5,3 L9.5,0.752561327 L5.75256133,4.5 Z M9.75256133,0.5 L9.54545455,0.5 L9.54545455,0 L9.89900794,0.353553391 L9.75256133,0.5 Z M5.5,4.75256133 L5.35355339,4.89900794 L5,4.54545455 L5.5,4.54545455 L5.5,4.75256133 Z" transform="translate(7.500000, 2.500000) scale(-1, 1) translate(-7.500000, -2.500000) "></path>
        </g>
    </g>
</svg>