<?xml version="1.0" encoding="UTF-8"?>
<svg width="18px" height="18px" viewBox="0 0 1025 1024" version="1.1" xmlns="http://www.w3.org/2000/svg" xmlns:xlink="http://www.w3.org/1999/xlink">
    <g  stroke="none" stroke-width="1" fill="none" fill-rule="evenodd">
        <g fill="#ffffff" fill-rule="nonzero">
            <g transform="translate(0.181818, 0.000000)">
                <path d="M697.363636,93.0909091 L697.363636,319.53547 C810.279775,379.127367 883.545455,496.977729 883.545455,628.363636 L883.545455,674.909091 L557.727273,674.909091 L557.727273,1024 L464.636364,1024 L464.636364,674.909091 L138.818182,674.909091 L138.818182,628.363636 C138.818182,496.977729 212.083862,379.127367 325,319.53547 L325,93.0909091 L231.909091,93.0909091 L231.909091,-8.52651283e-14 L790.454545,-8.52651283e-14 L790.454545,93.0909091 L697.363636,93.0909091 Z M418.090909,93.0909091 L418.090909,380.025609 L389.460481,391.965067 C309.201485,425.434664 251.745396,497.170802 236.150452,581.818182 L786.213185,581.818182 C770.618241,497.170802 713.162152,425.434664 632.903155,391.965067 L604.272727,380.025609 L604.272727,93.0909091 L418.090909,93.0909091 Z"></path>
            </g>
        </g>
    </g>
</svg>