<?xml version="1.0" encoding="utf-8"?>
<svg version="1.1" id="图层_1" xmlns="http://www.w3.org/2000/svg" xmlns:xlink="http://www.w3.org/1999/xlink" x="0px" y="0px"
	 viewBox="206 -116 1024 1024" style="enable-background:new 206 -116 1024 1024;" xml:space="preserve"
	  width="16" height="16">
<style type="text/css">
	.st0{fill:none;}
	.st1{fill:#A9A9A9;}
</style>
<rect x="417.2" y="-178" class="st0" width="1024.8" height="1024.8"/>
<path class="st1" d="M718-116.4C435-116.4,205.6,113,205.6,396S435,908.4,718,908.4S1230.4,679,1230.4,396S1001-116.4,718-116.4z
	 M1035.1,713.1c-41.2,41.2-89.2,73.5-142.5,96.1c-55.2,23.4-114,35.2-174.5,35.2s-119.3-11.8-174.5-35.2
	c-53.4-22.6-101.3-54.9-142.5-96.1c-41.2-41.2-73.5-89.2-96.1-142.5c-23.4-55.2-35.2-114-35.2-174.5s11.8-119.3,35.2-174.5
	c22.6-53.4,54.9-101.3,96.1-142.5S490.3,5.6,543.6-17C598.7-40.6,657.4-52.4,718-52.4s119.3,11.8,174.5,35.2
	C945.9,5.4,993.8,37.7,1035,78.9c41.2,41.2,73.5,89.2,96.1,142.5c23.4,55.2,35.2,114,35.2,174.5s-11.8,119.3-35.2,174.5
	C1108.6,623.9,1076.3,671.9,1035.1,713.1z M465.2,656.9c-1.2,1.5-1.2,3.7,0,5.2c1.4,1.9,4.2,2.3,6.1,0.9l188.3-141.2l-53.2-53.2
	L465.2,656.9z M838.5,169.4c-1.9-1.9-3.9-3.5-6.2-5c-17.4-11.3-40.7-6.3-52,11.1L688.1,318c-55.9-14.3-117.7,0.5-161.5,44.3
	c-4.5,4.5-8.7,9.2-12.6,14L751.7,614c4.8-3.9,9.5-8.1,14-12.6c43.8-43.8,58.5-105.6,44.3-161.5l142.5-92.2c2.2-1.4,4.3-3.1,6.2-5
	c14.7-14.7,14.7-38.5,0-53.1L838.5,169.4z"/>
</svg>
