<svg xmlns="http://www.w3.org/2000/svg" viewBox="206 -116 1024 1024" width="14" height="14"><path d="M1156.6 287.2h-73.1c0-80.7-65.5-146.2-146.2-146.2h-73l58.8-58.8c20.4-20.4 20.4-53.4 0-73.8s-53.4-20.4-73.8 0L718.5 139.2l1.8 1.8h-3.6l1.8-1.8L587.8 8.4C567.4-12 534.4-12 514 8.4s-20.4 53.4 0 73.8l58.8 58.8h-74c-80.7 0-146.2 65.5-146.2 146.2h-73.1c-40.4 0-73.1 32.7-73.1 73.1v219.3c0 40.4 32.7 73.1 73.1 73.1h73.1c0 80.7 65.5 146.2 146.2 146.2h438.6c80.7 0 146.2-65.5 146.2-146.2h73.1c40.4 0 73.1-32.7 73.1-73.1V360.3c-.1-40.4-32.9-73.1-73.2-73.1zM644.9 504.8c0 40.4-32.7 73.1-73.1 73.1-40.4 0-73.1-32.7-73.1-73.1v-73.1c0-40.4 32.7-73.1 73.1-73.1 40.4 0 73.1 32.7 73.1 73.1v73.1zm292.4 0c0 40.4-32.7 73.1-73.1 73.1-40.4 0-73.1-32.7-73.1-73.1v-73.1c0-40.4 32.7-73.1 73.1-73.1 40.4 0 73.1 32.7 73.1 73.1v73.1z" fill-rule="evenodd" clip-rule="evenodd" fill="#397ee4"/></svg>