<?xml version="1.0" encoding="utf-8"?>
<svg version="1.1" id="layer_1" xmlns="http://www.w3.org/2000/svg" xmlns:xlink="http://www.w3.org/1999/xlink" x="0px" y="0px"
	 viewBox="206 -116 1024 1024" style="enable-background:new 206 -116 1024 1024;" xml:space="preserve" width="14" height="14">
<style type="text/css">
	.st0{fill-rule:evenodd;clip-rule:evenodd;fill:#397EE4;}
</style>
<path class="st0" d="M1156.6,287.2h-73.1c0-80.7-65.5-146.2-146.2-146.2h-73l58.8-58.8c20.4-20.4,20.4-53.4,0-73.8
	c-20.4-20.4-53.4-20.4-73.8,0L718.5,139.2l1.8,1.8h-3.6l1.8-1.8L587.8,8.4c-20.4-20.4-53.4-20.4-73.8,0c-20.4,20.4-20.4,53.4,0,73.8
	l58.8,58.8h-74c-80.7,0-146.2,65.5-146.2,146.2h-73.1c-40.4,0-73.1,32.7-73.1,73.1v219.3c0,40.4,32.7,73.1,73.1,73.1h73.1
	c0,80.7,65.5,146.2,146.2,146.2h438.6c80.7,0,146.2-65.5,146.2-146.2h73.1c40.4,0,73.1-32.7,73.1-73.1V360.3
	C1229.7,319.9,1196.9,287.2,1156.6,287.2z M644.9,504.8c0,40.4-32.7,73.1-73.1,73.1c-40.4,0-73.1-32.7-73.1-73.1v-73.1
	c0-40.4,32.7-73.1,73.1-73.1c40.4,0,73.1,32.7,73.1,73.1V504.8z M937.3,504.8c0,40.4-32.7,73.1-73.1,73.1
	c-40.4,0-73.1-32.7-73.1-73.1v-73.1c0-40.4,32.7-73.1,73.1-73.1c40.4,0,73.1,32.7,73.1,73.1V504.8z"/>
</svg>
