<svg xmlns="http://www.w3.org/2000/svg" viewBox="0 0 48 48" width="48" height="48"><path fill="#FFF" fill-opacity=".9" d="M24.154 2C11.919 2 2 11.924 2 24.165S11.919 46.33 24.154 46.33s22.154-9.924 22.154-22.165S36.389 2 24.154 2z"></path><path fill="#FFBC00" d="M19.352 30.776c.809-.008 1.626 0 2.443 0 .008-2.05.008-4.109 0-6.159h-2.451c-.008 2.05-.016 4.108.008 6.159zm-3.476-8.674l1.928-1.928 1.929 1.928.964-.964-1.929-1.929 1.929-1.928-.964-.964-1.929 1.928-1.928-1.928-.965.964 1.929 1.928-1.929 1.929.965.964zm-.241 4.998a280.3 280.3 0 0 1 0 3.668c.825.016 1.642 0 2.467.008.008-1.233 0-2.459 0-3.692-.825 0-1.65-.032-2.467.016zm14.785-9.868c0 4.517-.008 9.026 0 13.544.825-.008 1.642.008 2.467-.008-.008-4.509-.008-9.01 0-13.52-.817-.048-1.642-.008-2.467-.016zm-3.7 2.899c.008 3.548-.008 7.096.008 10.644.817 0 1.634-.008 2.443 0 .032-3.684 0-7.377.016-11.061-.809-.056-1.626 0-2.435-.032a2.768 2.768 0 0 0-.032.449zm-3.668 2.019c-.024.152-.024.312-.024.464.008 2.723-.008 5.438.008 8.161h2.451c.016-.961 0-1.914.008-2.875-.016-1.914.024-3.836-.016-5.751a115.5 115.5 0 0 1-2.427.001z"></path></svg>