<?xml version="1.0" encoding="UTF-8"?>
<svg width="48px" height="48px" viewBox="0 0 48 48" version="1.1" xmlns="http://www.w3.org/2000/svg" xmlns:xlink="http://www.w3.org/1999/xlink">
    <g stroke="none" stroke-width="1" fill="none" fill-rule="evenodd">
        <g transform="translate(-26.000000, -20.000000)">
            <g>
                <g transform="translate(26.000000, 20.000000)">
                    <g>
                        <circle fill="#333333" cx="24" cy="24" r="24"></circle>
                        <g transform="translate(13.000000, 18.000000)" fill="#FAE05C">
                            <path d="M5,8 C5.55228475,8 6,8.44771525 6,9 L6,15 C6,15.5522847 5.55228475,16 5,16 C4.44771525,16 4,15.5522847 4,15 L4,9 C4,8.44771525 4.44771525,8 5,8 Z M1,10 C1.55228475,10 2,10.4477153 2,11 L2,15 C2,15.5522847 1.55228475,16 1,16 C0.44771525,16 6.76353751e-17,15.5522847 0,15 L0,11 C-6.76353751e-17,10.4477153 0.44771525,10 1,10 Z M9,6 C9.55228475,6 10,6.44771525 10,7 L10,15 C10,15.5522847 9.55228475,16 9,16 C8.44771525,16 8,15.5522847 8,15 L8,7 C8,6.44771525 8.44771525,6 9,6 Z M13,4 C13.5522847,4 14,4.44771525 14,5 L14,15 C14,15.5522847 13.5522847,16 13,16 C12.4477153,16 12,15.5522847 12,15 L12,5 C12,4.44771525 12.4477153,4 13,4 Z M17,2 C17.5522847,2 18,2.44771525 18,3 L18,15 C18,15.5522847 17.5522847,16 17,16 C16.4477153,16 16,15.5522847 16,15 L16,3 C16,2.44771525 16.4477153,2 17,2 Z M21,0 C21.5522847,-1.01453063e-16 22,0.44771525 22,1 L22,15 C22,15.5522847 21.5522847,16 21,16 C20.4477153,16 20,15.5522847 20,15 L20,1 C20,0.44771525 20.4477153,1.01453063e-16 21,0 Z"></path>
                        </g>
                        <g transform="translate(16.853553, 16.939340) rotate(45.000000) translate(-16.853553, -16.939340) translate(11.853553, 11.939340)" fill="#FAE05C">
                            <rect x="4" y="-3.63797881e-12" width="2" height="10" rx="1"></rect>
                            <rect transform="translate(5.000000, 5.000000) rotate(90.000000) translate(-5.000000, -5.000000) " x="4" y="-3.63797881e-12" width="2" height="10" rx="1"></rect>
                        </g>
                    </g>
                </g>
            </g>
        </g>
    </g>
</svg>