<?xml version="1.0" encoding="utf-8"?>
<!-- Generator: Adobe Illustrator 19.0.0, SVG Export Plug-In . SVG Version: 6.00 Build 0)  -->
<svg version="1.1" id="图层_1" xmlns="http://www.w3.org/2000/svg" xmlns:xlink="http://www.w3.org/1999/xlink" x="0px" y="0px"
	 viewBox="212 -62 1024 1024" style="enable-background:new 212 -62 1024 1024;" xml:space="preserve">
<style type="text/css">
	.st0{fill:#19C2FD;}
	.st1{clip-path:url(#SVGID_2_);fill:#FFFFFF;}
</style>
<circle class="st0" cx="724" cy="450" r="512"/>
<g>
	<defs>
		<path id="SVGID_1_" d="M562.4,228.2l409.8,204.6c14.2,7.1,19.9,24.3,12.8,38.5c-2.8,5.6-7.3,10.1-12.8,12.8L562.4,688.8
			c-14.2,7.1-31.4,1.3-38.5-12.8c-3.7-7.4-4-16-0.9-23.6l74.3-183.1c2.8-6.9,2.8-14.6,0-21.6L523,264.6c-6-14.7,1.1-31.4,15.8-37.3
			C546.4,224.2,555,224.5,562.4,228.2z"/>
	</defs>
	<clipPath id="SVGID_2_">
		<use xlink:href="#SVGID_1_"  style="overflow:visible;"/>
	</clipPath>
	<rect x="377.6" y="81.8" class="st1" width="753.9" height="753.4"/>
</g>
</svg>
