<?xml version="1.0" encoding="UTF-8"?>
<svg width="20" height="20" viewBox="0 0 21 21" version="1.1" xmlns="http://www.w3.org/2000/svg" xmlns:xlink="http://www.w3.org/1999/xlink">
    <g stroke="none" stroke-width="1" fill="none" fill-rule="evenodd" stroke-linecap="round" stroke-linejoin="round">
        <g transform="translate(-1161.000000, -138.000000)" stroke="#3A3C3E">
            <g transform="translate(1159.000000, 136.000000)">
                <g transform="translate(15.081475, 10.081475) rotate(45.000000) translate(-15.081475, -10.081475) translate(6.081475, 0.581475)">
                    <path d="M10.827383,2.10834002 L16.9992334,15.9839536 C17.4481398,16.9931894 16.9939032,18.1752472 15.9846674,18.6241536 C15.4913798,18.8435671 14.930339,18.854232 14.4290691,18.653724 L9.74278135,16.7792089 C9.26595929,16.5884801 8.73404071,16.5884801 8.25721865,16.7792089 L3.57093093,18.653724 C2.54536389,19.0639508 1.381423,18.565119 0.971196191,17.539552 C0.770688209,17.038282 0.781353044,16.4772413 1.0007666,15.9839536 L7.17261702,2.10834002 C7.62152345,1.09910427 8.80358123,0.644867601 9.81281699,1.09377403 C10.2648502,1.29483765 10.6263194,1.65630685 10.827383,2.10834002 Z" stroke-width="2"></path>
                    <path d="M9.04296875,16 L9.04296875,9" stroke-width="2"></path>
                </g>
            </g>
        </g>
    </g>
</svg>