<svg width="48" height="48" xmlns="http://www.w3.org/2000/svg"><g fill="none" fill-rule="evenodd"><circle fill="#333" cx="24" cy="24" r="24"/><path d="M18 26a1 1 0 011 1v6a1 1 0 01-2 0v-6a1 1 0 011-1zm-4 2a1 1 0 011 1v4a1 1 0 01-2 0v-4a1 1 0 011-1zm8-4a1 1 0 011 1v8a1 1 0 01-2 0v-8a1 1 0 011-1zm4-2a1 1 0 011 1v10a1 1 0 01-2 0V23a1 1 0 011-1zm4-2a1 1 0 011 1v12a1 1 0 01-2 0V21a1 1 0 011-1zm4-2a1 1 0 011 1v14a1 1 0 01-2 0V19a1 1 0 011-1z" fill="#FAE05C"/><g transform="rotate(45 -3.485 25.278)" fill="#FAE05C"><rect x="4" width="2" height="10" rx="1"/><rect transform="rotate(90 5 5)" x="4" width="2" height="10" rx="1"/></g></g></svg>