<?xml version="1.0" encoding="UTF-8"?>
<svg viewBox="0 0 8 9" version="1.1" xmlns="http://www.w3.org/2000/svg" xmlns:xlink="http://www.w3.org/1999/xlink">
    <g id="" stroke="none" stroke-width="1" fill="none" fill-rule="evenodd" opacity="0.7">
        <g id="" transform="translate(-233.000000, -124.000000)" fill="#8799a5" fill-rule="nonzero">
            <g id="" transform="translate(17.000000, 61.000000)">
                <g id="" transform="translate(220.000000, 67.500000) scale(-1, 1) translate(-220.000000, -67.500000) translate(216.000000, 63.000000)">
                    <path d="M4,0.5 C5.3254834,0.5 6.41003867,1.53153594 6.49468232,2.83562431 L6.5,3 L6.499,3.5 L6.57142857,3.5 C7.04763328,3.5 7.44011379,3.85846589 7.49375282,4.32028038 L7.5,4.42857143 L7.5,7.57142857 C7.5,8.08426441 7.08426441,8.5 6.57142857,8.5 L6.57142857,8.5 L1.42857143,8.5 C0.915735589,8.5 0.5,8.08426441 0.5,7.57142857 L0.5,7.57142857 L0.5,4.42857143 C0.5,3.91573559 0.915735589,3.5 1.42857143,3.5 L1.42857143,3.5 L1.499,3.5 L1.5,3 C1.5,1.61928813 2.61928813,0.5 4,0.5 Z M6.5,4.5 L1.5,4.5 L1.5,7.5 L6.5,7.5 L6.5,4.5 Z M4,1.5 C3.22030388,1.5 2.57955132,2.09488808 2.50686658,2.85553999 L2.5,3 L2.499,3.5 L5.499,3.5 L5.5,3 C5.5,2.17157288 4.82842712,1.5 4,1.5 Z" id="形状结合"></path>
                </g>
            </g>
        </g>
    </g>
</svg>