<svg width="18" height="18" viewBox="0 0 1024 1024" xmlns="http://www.w3.org/2000/svg"><path d="M331.818 93.09h-93.09V0h558.545v93.09h-93.091v226.445c112.916 59.592 186.182 177.443 186.182 308.829v13.286l-103.965-87.237c-21.866-72.547-75.239-132.656-146.678-162.448l-28.63-11.94V93.092H424.909v157.996l-93.09-78.113V93.091zm232.727 581.82V1024h-93.09V674.91H145.636v-46.546c0-104.712 46.537-200.827 122.593-265.704l72.687 60.992c-50.888 38.267-86.231 94.573-97.947 158.166h286.443l110.941 93.091h-75.808zM35.92 106.967l59.838-71.312 891.397 747.97-59.838 71.313-891.398-747.97z" fill="#fff"/></svg>