<?xml version="1.0" encoding="UTF-8"?>
<svg width="18px" height="18px" viewBox="0 0 1024 1024" version="1.1" xmlns="http://www.w3.org/2000/svg" xmlns:xlink="http://www.w3.org/1999/xlink">
    <g  stroke="none" stroke-width="1" fill="none" fill-rule="evenodd">
        <path d="M331.818182,93.0909091 L238.727273,93.0909091 L238.727273,0 L797.272727,0 L797.272727,93.0909091 L704.181818,93.0909091 L704.181818,319.53547 C817.097957,379.127367 890.363636,496.977729 890.363636,628.363636 L890.363636,641.649646 L786.398566,554.412593 C764.532729,481.866023 711.16025,421.756514 639.721337,391.965067 L611.090909,380.025609 L611.090909,93.0909091 L424.909091,93.0909091 L424.909091,251.086908 L331.818182,172.974361 L331.818182,93.0909091 Z M564.545455,674.909091 L564.545455,1024 L471.454545,1024 L471.454545,674.909091 L145.636364,674.909091 L145.636364,628.363636 C145.636364,523.651776 192.172976,427.537372 268.229426,362.660162 L340.916104,423.651527 C290.027561,461.918991 254.684679,518.224971 242.968633,581.818182 L529.411784,581.818182 L640.353209,674.909091 L564.545455,674.909091 Z M35.9188415,106.96766 L95.7565244,35.6558868 L987.153695,783.626924 L927.316012,854.938697 L35.9188415,106.96766 Z"  fill="#ffffff" fill-rule="nonzero"></path>
    </g>
</svg>