<?xml version="1.0" encoding="utf-8"?>
<svg version="1.1" id="layer_1" xmlns="http://www.w3.org/2000/svg" xmlns:xlink="http://www.w3.org/1999/xlink" x="0px" y="0px"
	 viewBox="206 -116 1024 1024" style="enable-background:new 206 -116 1024 1024;" xml:space="preserve" width="16" height="16">
<style type="text/css">
	.st0{fill:#397EE4;}
</style>
<path class="st0" d="M1208.3,336.3l-69-85.6c-10.9-14.1-17.9-30.7-19.8-49.2l-12.1-108.6c-5.1-44.7-40.3-79.9-85-85L913.8-4.2
	C894.6-6.1,878-14.4,864-25.3l-85.6-69c-35.1-28.1-85-28.1-120.1,0l-85.6,69C558.6-14.4,542-7.4,523.5-5.5L414.9,6.6
	c-44.7,5.1-79.9,40.3-85,85l-12.1,108.6c-1.9,19.2-10.2,35.8-21.1,49.8l-69,85.6c-28.1,35.1-28.1,85,0,120.1l69,85.6
	c10.9,14.1,17.9,30.7,19.8,49.2l12.1,108.6c5.1,44.7,40.3,79.9,85,85l108.6,12.1c19.2,1.9,35.8,10.2,49.8,21.1l85.6,69
	c35.1,28.1,85,28.1,120.1,0l85.6-69c14.1-10.9,30.7-17.9,49.2-19.8l108.6-12.1c44.7-5.1,79.9-40.3,85-85l12.1-108.6
	c1.9-19.2,10.2-35.8,21.1-49.8l69-85.6C1236.4,421.2,1236.4,371.4,1208.3,336.3z M629.8,631L425.2,432.1l87.7-85.2l116.9,113.7
	l292.3-284.1l87.7,88.1L629.8,631z"/>
</svg>
